<svg width="26" height="26" viewBox="0 0 26 26" fill="none" xmlns="http://www.w3.org/2000/svg">
<g clip-path="url(#clip0_275_250)">
<path d="M25.1624 4.7174V20.4439C25.1624 21.3364 24.4822 22.0166 23.5898 22.0166H22.0171V7.74396L12.5812 14.5221L3.1453 7.74396V22.0166H1.57265C0.680172 22.0166 0 21.3364 0 20.4439V4.7174C0 4.27076 0.168274 3.8776 0.450565 3.59924C0.597505 3.45203 0.772588 3.33592 0.965369 3.25784C1.15815 3.17975 1.36468 3.14129 1.57265 3.14475H2.09713L12.5812 10.7462L23.0653 3.14475H23.5898C24.0364 3.14475 24.4296 3.31302 24.7119 3.59924C24.9941 3.8776 25.1624 4.27076 25.1624 4.7174Z" fill="white"/>
</g>
<defs>
<clipPath id="clip0_275_250">
<rect width="25.1624" height="25.1624" fill="white"/>
</clipPath>
</defs>
</svg>
