<svg width="25" height="25" viewBox="0 0 25 25" fill="none" xmlns="http://www.w3.org/2000/svg">
<path d="M12.5 0C9.18479 0 6.00537 1.31696 3.66116 3.66117C1.31696 6.00537 0 9.18479 0 12.5C0 15.8152 1.31696 18.9946 3.66116 21.3388C6.00537 23.683 9.18479 25 12.5 25C15.8152 25 18.9946 23.683 21.3388 21.3388C23.683 18.9946 25 15.8152 25 12.5C25 9.18479 23.683 6.00537 21.3388 3.66117C18.9946 1.31696 15.8152 0 12.5 0ZM15.7948 22.6906H15.6979C15.6251 22.6956 15.552 22.6851 15.4835 22.66C15.4149 22.6349 15.3524 22.5956 15.3 22.5448C15.2505 22.4936 15.212 22.4328 15.1869 22.3662C15.1618 22.2995 15.1507 22.2284 15.1542 22.1573V20.6927C15.1611 20.2059 15.1646 19.7142 15.1646 19.2177C15.1628 18.8551 15.1098 18.4946 15.0073 18.1469C14.9102 17.7953 14.7142 17.479 14.4427 17.2354C15.1688 17.1655 15.8825 17.0005 16.5656 16.7448C17.1419 16.5257 17.6632 16.1829 18.0927 15.7406C18.5167 15.2958 18.8323 14.7583 19.0146 14.1719C19.2358 13.4536 19.3413 12.7046 19.3271 11.9531C19.332 11.4283 19.2402 10.9071 19.0562 10.4156C18.87 9.92009 18.5887 9.46574 18.2281 9.07813C18.3061 8.88272 18.3627 8.67945 18.3969 8.47188C18.4316 8.26354 18.449 8.05382 18.449 7.84271C18.449 7.57049 18.4177 7.30208 18.3552 7.0375C18.2997 6.76688 18.2227 6.50111 18.125 6.24271C18.0881 6.22852 18.0489 6.22145 18.0094 6.22188H17.8948C17.6545 6.22465 17.4205 6.2632 17.1927 6.3375C16.9422 6.40933 16.6974 6.49986 16.4604 6.60833C16.2247 6.71513 15.9949 6.8344 15.7719 6.96563C15.5483 7.09826 15.3493 7.22396 15.175 7.34271C13.4225 6.85546 11.5702 6.85546 9.81771 7.34271C9.62217 7.21223 9.4235 7.0865 9.22187 6.96563C8.99624 6.83232 8.76245 6.71333 8.52187 6.60938C8.28509 6.49843 8.03945 6.40748 7.7875 6.3375C7.56491 6.26391 7.33234 6.22492 7.09792 6.22188H6.98333C6.94417 6.22158 6.9053 6.22865 6.86875 6.24271C6.77136 6.50204 6.69133 6.76755 6.62917 7.0375C6.57361 7.30278 6.54549 7.57118 6.54479 7.84271C6.54479 8.05382 6.5625 8.26354 6.59792 8.47188C6.63333 8.68021 6.68889 8.88229 6.76458 9.07813C6.40504 9.46632 6.12479 9.92102 5.93958 10.4167C5.75454 10.908 5.66167 11.4292 5.66562 11.9542C5.65155 12.7016 5.75417 13.4467 5.96979 14.1625C6.15833 14.749 6.47292 15.2875 6.89062 15.7417C7.32292 16.1813 7.84375 16.5229 8.41771 16.7458C9.09792 17.0063 9.81042 17.1729 10.5354 17.2417C10.3323 17.4245 10.1716 17.6496 10.0646 17.901C9.96212 18.1493 9.8921 18.4098 9.85625 18.676C9.47409 18.8592 9.05606 18.9552 8.63229 18.9573C8.23886 18.9722 7.85073 18.8628 7.52292 18.6448C7.20872 18.4121 6.94268 18.1206 6.73958 17.7865C6.649 17.6459 6.54729 17.5128 6.43542 17.3885C6.31772 17.2576 6.18798 17.138 6.04792 17.0313C5.91012 16.9276 5.7587 16.8435 5.59792 16.7813C5.43995 16.712 5.26936 16.6762 5.09687 16.676C5.05521 16.6774 5.01354 16.6809 4.97187 16.6865C4.915 16.6868 4.85837 16.6938 4.80312 16.7073C4.75459 16.7198 4.70872 16.741 4.66771 16.7698C4.64929 16.7804 4.63389 16.7955 4.62295 16.8138C4.61202 16.832 4.60591 16.8527 4.60521 16.874C4.60958 16.9241 4.62491 16.9726 4.65011 17.0162C4.67531 17.0598 4.70976 17.0973 4.75104 17.126C4.84826 17.2031 4.92882 17.2625 4.99271 17.3042L5.02396 17.326C5.16285 17.4337 5.29549 17.5493 5.42187 17.6729C5.53924 17.7757 5.6434 17.8903 5.73437 18.0167C5.82882 18.1403 5.90903 18.2726 5.975 18.4135C6.05139 18.5524 6.1316 18.7132 6.21562 18.8958C6.41146 19.3896 6.75937 19.8073 7.20937 20.0885C7.68125 20.3417 8.21042 20.4677 8.74687 20.4542C8.92882 20.4542 9.11007 20.4438 9.29062 20.4229C9.46979 20.3944 9.64861 20.3628 9.82708 20.3281V22.1438C9.83033 22.217 9.81808 22.29 9.79116 22.3582C9.76423 22.4263 9.72323 22.488 9.67083 22.5392C9.61843 22.5905 9.55581 22.6301 9.48706 22.6554C9.41831 22.6808 9.34499 22.6914 9.27187 22.6865H9.20729C6.77817 21.9017 4.70903 20.2755 3.37247 18.1006C2.03591 15.9258 1.51976 13.3452 1.91696 10.8235C2.31416 8.30188 3.59862 6.0049 5.53903 4.34621C7.47945 2.68752 9.94831 1.77612 12.501 1.77612C15.0538 1.77612 17.5226 2.68752 19.463 4.34621C21.4035 6.0049 22.6879 8.30188 23.0851 10.8235C23.4823 13.3452 22.9662 15.9258 21.6296 18.1006C20.2931 20.2755 18.2239 21.9017 15.7948 22.6865V22.6906Z" fill="white"/>
</svg>
