<svg width="23" height="23" viewBox="0 0 23 23" fill="none" xmlns="http://www.w3.org/2000/svg">
<path d="M15.2872 1.26953H7.97235C4.26914 1.26953 1.26709 4.27158 1.26709 7.97479V15.2896C1.26709 18.9928 4.26914 21.9949 7.97235 21.9949H15.2872C18.9904 21.9949 21.9924 18.9928 21.9924 15.2896V7.97479C21.9924 4.27158 18.9904 1.26953 15.2872 1.26953Z" stroke="white" stroke-width="2" stroke-linecap="round" stroke-linejoin="round"/>
<path d="M11.6296 16.0268C14.0576 16.0268 16.0258 14.0585 16.0258 11.6306C16.0258 9.20263 14.0576 7.23438 11.6296 7.23438C9.20165 7.23438 7.2334 9.20263 7.2334 11.6306C7.2334 14.0585 9.20165 16.0268 11.6296 16.0268Z" stroke="white" stroke-width="2" stroke-linecap="round" stroke-linejoin="round"/>
<path d="M17.596 6.92158C18.2896 6.92158 18.8518 6.35938 18.8518 5.66587C18.8518 4.97236 18.2896 4.41016 17.596 4.41016C16.9025 4.41016 16.3403 4.97236 16.3403 5.66587C16.3403 6.35938 16.9025 6.92158 17.596 6.92158Z" fill="white"/>
</svg>
