<svg width="70" height="32" viewBox="0 0 70 32" fill="none" xmlns="http://www.w3.org/2000/svg">
<path d="M69.5192 14.1267C69.0207 14.6805 68.3422 15.4283 67.4838 16.3698C66.653 17.3113 65.753 18.3498 64.7838 19.4852C63.8146 20.6206 62.8315 21.8114 61.8346 23.0575C60.8653 24.3037 59.9791 25.5082 59.1761 26.6713H69.7269V31.8222H55.6107L52.6098 26.6244C52.9568 26.0898 53.3317 25.5377 53.7345 24.9683C54.5653 23.8052 55.4237 22.6421 56.3099 21.479C57.2237 20.3159 58.1237 19.1944 59.0099 18.1144C59.8685 17.0411 60.6623 16.0719 61.3909 15.2066H45.6345V9.97374H52.156V9.97279H69.5192V14.1267Z" fill="#F8F8F8"/>
<path d="M51.3776 15.2011C51.0607 15.5502 50.7064 15.9398 50.3145 16.3697C49.4837 17.3112 48.5837 18.3497 47.6145 19.4851C46.6452 20.6204 45.6622 21.8112 44.6652 23.0574C43.696 24.3035 42.8098 25.5081 42.0067 26.6712H50.1303L52.6268 26.6297L54.7038 30.2297L55.673 31.822H34.4883V28.1666C35.0698 27.1696 35.7621 26.1035 36.5652 24.9681C37.396 23.805 38.2544 22.6419 39.1406 21.4788C40.0544 20.3158 40.9544 19.1942 41.8406 18.1142C42.7267 17.0065 43.5437 16.0096 44.2914 15.1235H34.9867V9.97266H48.4033L51.3776 15.2011Z" fill="#FF6B00"/>
<path d="M19.2324 26.2515V31.8177H3.34162L8.90769 26.2515H19.2324Z" fill="#F8F8F8"/>
<path d="M6.48 24.567L0 31.0471V3.03125H6.48V24.567Z" fill="#F8F8F8"/>
<path d="M29.7278 31.8187H23.5386V9.96931H29.7278V31.8187ZM30.3094 3.65541C30.3094 4.79081 29.9355 5.69081 29.1878 6.35543C28.4678 6.99236 27.6094 7.31082 26.6124 7.31082C25.6155 7.31082 24.7432 6.99236 23.9955 6.35543C23.2755 5.69081 22.9155 4.79081 22.9155 3.65541C22.9155 2.52002 23.2755 1.63386 23.9955 0.99693C24.7432 0.33231 25.6155 0 26.6124 0C27.6094 0 28.4678 0.33231 29.1878 0.99693C29.9355 1.63386 30.3094 2.52002 30.3094 3.65541Z" fill="#F8F8F8"/>
<path d="M19.2324 26.2525V31.8187H3.34162L8.90769 26.2525H19.2324Z" fill="#F8F8F8"/>
<path d="M6.48 24.5681L0 31.0481V3.03228H6.48V24.5681Z" fill="#F8F8F8"/>
</svg>
