<svg width="164" height="104" viewBox="0 0 164 104" fill="none" xmlns="http://www.w3.org/2000/svg">
<path d="M163.379 33.2093C162.208 34.5111 160.613 36.2686 158.595 38.4817C156.643 40.6948 154.528 43.1357 152.25 45.8044C149.972 48.4731 147.662 51.272 145.319 54.2011C143.041 57.1302 140.959 59.9615 139.071 62.6953H163.867V74.8023H130.692L123.64 62.5851C124.456 61.3284 125.337 60.0308 126.283 58.6923C128.236 55.9585 130.253 53.2246 132.335 50.4908C134.483 47.757 136.598 45.1208 138.681 42.5823C140.699 40.0596 142.564 37.7816 144.277 35.7478H107.247V23.4479H122.573V23.4456H163.379V33.2093Z" fill="#F8F8F8"/>
<path d="M120.744 35.7347C119.999 36.5552 119.167 37.471 118.246 38.4814C116.293 40.6944 114.178 43.1354 111.9 45.8041C109.623 48.4728 107.312 51.2717 104.969 54.2008C102.691 57.1299 100.609 59.9612 98.7215 62.695H117.813L123.68 62.5975L128.561 71.0593L130.839 74.802H81.0522V66.2099C82.4189 63.8666 84.046 61.3607 85.9333 58.692C87.8857 55.9582 89.9031 53.2243 91.9856 50.4905C94.1333 47.7567 96.2484 45.1205 98.331 42.582C100.414 39.9784 102.333 37.6352 104.091 35.5523H82.2236V23.4453H113.754L120.744 35.7347Z" fill="#FF6B00"/>
<path d="M45.1985 61.7038V74.7872H7.85318L20.9341 61.7038H45.1985Z" fill="#F8F8F8"/>
<path d="M15.2287 57.7446L0 72.9759V7.125H15.2287V57.7446Z" fill="#F8F8F8"/>
<path d="M69.8638 74.7895H55.3183V23.4327H69.8638V74.7895ZM71.2305 8.592C71.2305 11.2607 70.3519 13.3762 68.5948 14.9384C66.9027 16.4355 64.8852 17.184 62.5423 17.184C60.1994 17.184 58.1493 16.4355 56.3922 14.9384C54.7001 13.3762 53.854 11.2607 53.854 8.592C53.854 5.92327 54.7001 3.84036 56.3922 2.34327C58.1493 0.781091 60.1994 0 62.5423 0C64.8852 0 66.9027 0.781091 68.5948 2.34327C70.3519 3.84036 71.2305 5.92327 71.2305 8.592Z" fill="#F8F8F8"/>
<path d="M45.1985 61.7061V74.7895H7.85318L20.9341 61.7061H45.1985Z" fill="#F8F8F8"/>
<path d="M15.2288 57.747L0 72.9782V7.12733H15.2288V57.747Z" fill="#F8F8F8"/>
<path d="M94.784 98L102.272 81.2H106.112L113.624 98H109.544L103.4 83.168H104.936L98.768 98H94.784ZM98.528 94.4L99.56 91.448H108.2L109.256 94.4H98.528ZM115.103 98V80.192H118.847V98H115.103ZM125.826 98L120.402 85.088H124.266L128.778 96.2H126.858L131.538 85.088H135.138L129.69 98H125.826ZM142.722 98.192C141.25 98.192 139.954 97.904 138.834 97.328C137.73 96.752 136.874 95.968 136.266 94.976C135.658 93.968 135.354 92.824 135.354 91.544C135.354 90.248 135.65 89.104 136.242 88.112C136.85 87.104 137.674 86.32 138.714 85.76C139.754 85.184 140.93 84.896 142.242 84.896C143.506 84.896 144.642 85.168 145.65 85.712C146.674 86.24 147.482 87.008 148.074 88.016C148.666 89.008 148.962 90.2 148.962 91.592C148.962 91.736 148.954 91.904 148.938 92.096C148.922 92.272 148.906 92.44 148.89 92.6H138.402V90.416H146.922L145.482 91.064C145.482 90.392 145.346 89.808 145.074 89.312C144.802 88.816 144.426 88.432 143.946 88.16C143.466 87.872 142.906 87.728 142.266 87.728C141.626 87.728 141.058 87.872 140.562 88.16C140.082 88.432 139.706 88.824 139.434 89.336C139.162 89.832 139.026 90.424 139.026 91.112V91.688C139.026 92.392 139.178 93.016 139.482 93.56C139.802 94.088 140.242 94.496 140.802 94.784C141.378 95.056 142.05 95.192 142.818 95.192C143.506 95.192 144.106 95.088 144.618 94.88C145.146 94.672 145.626 94.36 146.058 93.944L148.05 96.104C147.458 96.776 146.714 97.296 145.818 97.664C144.922 98.016 143.89 98.192 142.722 98.192ZM155.799 98.192C154.695 98.192 153.631 98.064 152.607 97.808C151.599 97.536 150.799 97.2 150.207 96.8L151.455 94.112C152.047 94.48 152.743 94.784 153.543 95.024C154.359 95.248 155.159 95.36 155.943 95.36C156.807 95.36 157.415 95.256 157.767 95.048C158.135 94.84 158.319 94.552 158.319 94.184C158.319 93.88 158.175 93.656 157.887 93.512C157.615 93.352 157.247 93.232 156.783 93.152C156.319 93.072 155.807 92.992 155.247 92.912C154.703 92.832 154.151 92.728 153.591 92.6C153.031 92.456 152.519 92.248 152.055 91.976C151.591 91.704 151.215 91.336 150.927 90.872C150.655 90.408 150.519 89.808 150.519 89.072C150.519 88.256 150.751 87.536 151.215 86.912C151.695 86.288 152.383 85.8 153.279 85.448C154.175 85.08 155.247 84.896 156.495 84.896C157.375 84.896 158.271 84.992 159.183 85.184C160.095 85.376 160.855 85.656 161.463 86.024L160.215 88.688C159.591 88.32 158.959 88.072 158.319 87.944C157.695 87.8 157.087 87.728 156.495 87.728C155.663 87.728 155.055 87.84 154.671 88.064C154.287 88.288 154.095 88.576 154.095 88.928C154.095 89.248 154.231 89.488 154.503 89.648C154.791 89.808 155.167 89.936 155.631 90.032C156.095 90.128 156.599 90.216 157.143 90.296C157.703 90.36 158.263 90.464 158.823 90.608C159.383 90.752 159.887 90.96 160.335 91.232C160.799 91.488 161.175 91.848 161.463 92.312C161.751 92.76 161.895 93.352 161.895 94.088C161.895 94.888 161.655 95.6 161.175 96.224C160.695 96.832 159.999 97.312 159.087 97.664C158.191 98.016 157.095 98.192 155.799 98.192Z" fill="#F8F8F8"/>
</svg>
